<svg width="56" height="57" viewBox="0 0 56 57" fill="none" xmlns="http://www.w3.org/2000/svg">
<mask id="mask0_6391_531" style="mask-type:luminance" maskUnits="userSpaceOnUse" x="0" y="0" width="56" height="57">
<path d="M56 0.889893H0V56.8899H56V0.889893Z" fill="white"/>
</mask>
<g mask="url(#mask0_6391_531)">
<path d="M56 30.6717L47.3455 36.9081L50.6545 46.9626L39.9636 46.8353L36.6545 56.8899L28 50.6535L19.3455 56.8899L16.0364 46.8353L5.34545 46.9626L8.65455 36.9081L0 30.6717L8.65455 24.5626L5.34545 14.5081H16.0364L19.3455 4.45357L28 10.5627L36.6545 4.32629L39.9636 14.3808H50.6545L47.3455 24.4353L56 30.6717Z" fill="#634C9F"/>
<path d="M42.6351 18.8354C46.1987 16.6717 49.5078 13.8717 51.7987 10.5627C52.9442 8.90814 53.9624 6.99905 53.7078 5.08996C53.4533 3.30814 52.1805 1.78087 50.3987 1.52632C49.5078 1.27178 48.6169 1.39905 47.8533 1.6536C47.0896 1.78087 46.326 2.03541 45.8169 2.41723C44.2896 3.43541 43.6533 5.47178 43.1442 7.25359C42.2533 10.5627 41.4896 13.6172 40.9805 16.9263" stroke="#1D1D1B" stroke-width="0.5714" stroke-miterlimit="10" stroke-linecap="round" stroke-linejoin="round"/>
<path d="M38.4366 45.9445L24.5638 45.1808L18.582 33.0899L35.1275 8.39905L54.982 21.2536L38.4366 45.9445Z" fill="#FFB709"/>
<path d="M42.6367 18.8354C46.2004 16.6717 49.5094 13.8717 51.8004 10.5627C52.9458 8.90814 53.964 6.99905 53.7094 5.08996C53.4549 3.30814 52.1822 1.78087 50.4004 1.52632C49.5094 1.27178 48.6185 1.39905 47.8549 1.6536C47.0913 1.78087 46.3276 2.03541 45.8185 2.41723C44.2913 3.43541 43.6549 5.47178 43.1458 7.25359C42.8913 7.88996 42.764 8.39905 42.6367 9.16268" stroke="#1D1D1B" stroke-width="0.5714" stroke-miterlimit="10" stroke-linecap="round" stroke-linejoin="round"/>
<path d="M42.5078 27.3627L26.9805 29.7809L27.8715 30.7991L43.3987 28.3809L42.5078 27.3627Z" fill="#1D1D1B"/>
<path d="M37.5472 31.69C37.2926 31.5627 37.1654 31.5627 37.0381 31.5627C36.529 31.4355 36.0199 31.4355 35.5108 31.5627C35.0017 31.8173 34.3654 32.0718 33.8563 32.4536C33.3472 32.9627 32.9654 33.4718 32.7108 33.9809C32.4563 34.49 32.4563 34.9991 32.5835 35.5082C32.7108 36.0173 32.9654 36.5264 33.3472 36.9082L33.4745 37.0355C34.1108 37.6718 34.7472 37.9264 35.5108 37.9264C36.2745 37.9264 37.1654 37.5446 37.929 36.9082C38.6926 36.1446 39.0745 35.3809 39.2017 34.6173C39.329 33.8536 38.9472 33.09 38.4381 32.4536C38.1835 32.0718 37.8017 31.9446 37.5472 31.69ZM34.6199 36.7809C34.4926 36.6536 34.2381 36.5264 34.1108 36.3991C33.729 36.0173 33.6017 35.5082 33.729 34.8718C33.8563 34.3627 34.1108 33.8536 34.7472 33.2173C35.3835 32.7082 35.8926 32.3264 36.4017 32.3264C36.529 32.3264 36.529 32.3264 36.6563 32.3264C37.1654 32.3264 37.4199 32.4536 37.8017 32.8355C38.1835 33.2173 38.3108 33.7264 38.1835 34.3627C38.0563 34.8718 37.6745 35.3809 37.1654 35.89C36.6563 36.3991 36.0199 36.7809 35.5108 36.7809C35.2563 36.9082 34.8745 36.9082 34.6199 36.7809Z" fill="#1D1D1B"/>
<path d="M31.945 25.9627C32.5814 26.5991 33.2178 26.8536 33.9814 26.8536C33.9814 26.8536 33.9814 26.8536 34.1087 26.8536C34.8723 26.8536 35.7632 26.4718 36.5268 25.8354C37.2905 25.0718 37.6723 24.3082 37.7996 23.5445C37.9268 22.7809 37.545 22.0173 37.0359 21.3809C36.7814 20.9991 36.3996 20.8718 36.145 20.7445C35.7632 20.49 35.3814 20.49 34.8723 20.49C34.1087 20.49 33.2178 20.8718 32.4541 21.5082C31.6905 22.2718 31.3087 23.0354 31.1814 23.7991C30.9268 24.5627 31.1814 25.1991 31.945 25.9627ZM34.9996 21.3809C35.3814 21.3809 35.7632 21.6354 36.2723 21.89C36.6541 22.2718 36.7814 22.7809 36.6541 23.4173C36.5268 23.9264 36.145 24.4354 35.6359 25.0718C34.9996 25.5809 34.4905 25.9627 33.9814 25.9627C33.5996 26.09 33.345 25.9627 33.0905 25.8354C32.8359 25.7082 32.7087 25.5809 32.5814 25.4536C32.1996 25.0718 32.0723 24.5627 32.1996 23.9264C32.3268 23.4173 32.7087 22.9082 33.2178 22.2718C33.8541 21.7627 34.3632 21.3809 34.8723 21.3809C34.745 21.3809 34.8723 21.3809 34.9996 21.3809Z" fill="#1D1D1B"/>
</g>
</svg>
