<svg width="149" height="40" viewBox="0 0 149 40" fill="none" xmlns="http://www.w3.org/2000/svg">
<path d="M22.3595 39.3662C31.1723 39.3662 38.3166 32.222 38.3166 23.4091V11.4488C38.3166 7.89234 35.4701 5.00935 31.9587 5.00935H12.7603C9.24884 5.00935 6.40234 7.89234 6.40234 11.4488V23.4091C6.40234 32.222 13.5466 39.3662 22.3595 39.3662Z" fill="#634C9F"/>
<path d="M15.0287 24.1017C15.3612 25.6169 16.3586 27.6371 17.5222 27.9738C24.2057 30.2817 31.3059 30.1995 38.3151 30.2967V11.4488C38.3151 7.89234 35.4686 5.00934 31.9571 5.00934H12.7587C10.8622 5.00934 9.16086 5.85131 7.99609 7.18506C13.5001 10.5777 13.3089 18.084 15.0287 24.1017Z" fill="#FACC15"/>
<path d="M36.7976 31.2336C36.6699 31.2336 36.5415 31.2284 36.4123 31.2178L20.0381 29.864C17.5265 29.6562 15.4061 27.859 14.7617 25.3918L11.5694 13.1709C11.0034 10.9979 10.4179 8.75114 7.9167 8.07046L0.796621 6.58788C0.257208 6.47559 -0.090377 5.94155 0.0206638 5.39506C0.131538 4.84856 0.659649 4.49668 1.1984 4.60898L8.39926 6.10991C12.0463 7.08202 12.8854 10.3034 13.4982 12.6556L13.5391 12.8128L16.6901 24.8751C17.1188 26.5165 18.5294 27.712 20.2003 27.8504L36.5747 29.2042C37.8766 29.3119 39.073 28.4644 39.4202 27.1896L42.4368 16.1147L21.5278 14.375C21.0755 14.3378 20.6488 14.5168 20.3559 14.8671C20.063 15.2177 19.9588 15.6738 20.07 16.1189L21.0032 19.857C21.3117 21.0924 22.36 22.0083 23.612 22.1361L33.4695 23.1422C33.9729 23.1936 34.4327 22.89 34.5906 22.4046C34.6927 22.0901 34.6486 21.7509 34.4694 21.4739C34.29 21.197 34.0005 21.0205 33.6748 20.9901L25.3966 20.2146C24.8483 20.1632 24.4448 19.6713 24.4955 19.1157C24.5462 18.5603 25.0293 18.1513 25.5805 18.2029L33.8587 18.9783C34.7927 19.0659 35.6234 19.5718 36.1377 20.3665C36.6518 21.1609 36.7785 22.1344 36.4851 23.0366C36.0321 24.4295 34.7081 25.2996 33.2696 25.1523L23.412 24.1461C21.328 23.9335 19.5828 22.4088 19.0693 20.3523L18.1361 16.6142C17.865 15.5288 18.1193 14.4163 18.8336 13.5619C19.5479 12.7073 20.5893 12.2704 21.6911 12.3614L45 14.3008L41.3431 27.7268C40.7758 29.8093 38.9001 31.2334 36.7976 31.2336Z" fill="#634C9F"/>
<path d="M22.3716 33.7221C22.3716 35.2409 21.156 36.4721 19.6564 36.4721C18.157 36.4721 16.9414 35.2409 16.9414 33.7221C16.9414 32.2033 18.157 30.9723 19.6564 30.9723C21.156 30.9723 22.3716 32.2033 22.3716 33.7221Z" fill="#DC2626"/>
<path d="M35.8666 34.558C35.8666 35.4758 35.1322 36.2196 34.2263 36.2196C33.3203 36.2196 32.5859 35.4758 32.5859 34.558C32.5859 33.6405 33.3203 32.8967 34.2263 32.8967C35.1322 32.8967 35.8666 33.6405 35.8666 34.558Z" fill="#DC2626"/>
<path d="M19.5192 9.28602C19.5192 10.6188 18.4525 11.6991 17.1366 11.6991C15.8208 11.6991 14.7539 10.6188 14.7539 9.28602C14.7539 7.95329 15.8208 6.87275 17.1366 6.87275C18.4525 6.87275 19.5192 7.95329 19.5192 9.28602Z" fill="#F25321"/>
<path d="M23.9375 3.50558C23.9375 5.30719 22.4956 6.76755 20.7168 6.76755C18.9381 6.76755 17.4961 5.30719 17.4961 3.50558C17.4961 1.70412 18.9381 0.243602 20.7168 0.243602C22.4956 0.243602 23.9375 1.70412 23.9375 3.50558Z" fill="#634C9F"/>
<path d="M23.1557 8.4816C23.1557 9.11177 22.6514 9.62274 22.029 9.62274C21.4068 9.62274 20.9023 9.11177 20.9023 8.4816C20.9023 7.85143 21.4068 7.34045 22.029 7.34045C22.6514 7.34045 23.1557 7.85143 23.1557 8.4816Z" fill="#634C9F"/>
<path d="M30.1459 5.16121C30.1459 6.61786 28.9798 7.79874 27.5416 7.79874C26.1033 7.79874 24.9375 6.61786 24.9375 5.16121C24.9375 3.70439 26.1033 2.52352 27.5416 2.52352C28.9798 2.52352 30.1459 3.70439 30.1459 5.16121Z" fill="#F25321"/>
<path d="M32.649 10.1137C32.649 11.2993 31.7 12.2603 30.5296 12.2603C29.359 12.2603 28.4102 11.2993 28.4102 10.1137C28.4102 8.92827 29.359 7.96711 30.5296 7.96711C31.7 7.96711 32.649 8.92827 32.649 10.1137Z" fill="#F25321"/>
<path d="M41.6451 11.0538C41.6451 12.2394 40.6961 13.2004 39.5257 13.2004C38.3551 13.2004 37.4062 12.2394 37.4062 11.0538C37.4062 9.8684 38.3551 8.90723 39.5257 8.90723C40.6961 8.90723 41.6451 9.8684 41.6451 11.0538Z" fill="#634C9F"/>
<path d="M26.9118 10.4925C26.9118 11.2829 26.2793 11.9236 25.4989 11.9236C24.7186 11.9236 24.0859 11.2829 24.0859 10.4925C24.0859 9.70221 24.7186 9.06144 25.4989 9.06144C26.2793 9.06144 26.9118 9.70221 26.9118 10.4925Z" fill="#634C9F"/>
<path d="M35.4721 5.30146C35.4721 6.29327 34.6782 7.09735 33.6989 7.09735C32.7199 7.09735 31.9258 6.29327 31.9258 5.30146C31.9258 4.30965 32.7199 3.50556 33.6989 3.50556C34.6782 3.50556 35.4721 4.30965 35.4721 5.30146Z" fill="#634C9F"/>
<path d="M36.2204 11.0538C36.2204 11.8441 35.5879 12.4849 34.8075 12.4849C34.0272 12.4849 33.3945 11.8441 33.3945 11.0538C33.3945 10.2635 34.0272 9.62275 34.8075 9.62275C35.5879 9.62275 36.2204 10.2635 36.2204 11.0538Z" fill="#634C9F"/>
<path d="M37.8591 7.79873C37.8591 8.4651 37.3257 9.00537 36.6678 9.00537C36.0098 9.00537 35.4766 8.4651 35.4766 7.79873C35.4766 7.13236 36.0098 6.59227 36.6678 6.59227C37.3257 6.59227 37.8591 7.13236 37.8591 7.79873Z" fill="#F25321"/>
<path d="M136.148 8.07457C135.757 8.07457 135.42 7.99171 135.138 7.82599C134.858 7.65862 134.643 7.42661 134.492 7.12997C134.343 6.83333 134.268 6.49195 134.268 6.10582C134.268 5.71473 134.344 5.37169 134.495 5.0767C134.647 4.78007 134.863 4.54889 135.143 4.38317C135.424 4.21579 135.757 4.1321 136.143 4.1321C136.476 4.1321 136.768 4.19259 137.018 4.31357C137.268 4.43454 137.466 4.6044 137.612 4.82315C137.758 5.0419 137.838 5.29877 137.853 5.59375H136.854C136.826 5.40317 136.751 5.24988 136.63 5.13388C136.511 5.01622 136.354 4.95739 136.16 4.95739C135.996 4.95739 135.853 5.00213 135.73 5.09162C135.609 5.17945 135.515 5.30788 135.447 5.47692C135.379 5.64595 135.345 5.85062 135.345 6.09091C135.345 6.33452 135.378 6.54167 135.444 6.71236C135.512 6.88305 135.607 7.01314 135.73 7.10263C135.853 7.19212 135.996 7.23686 136.16 7.23686C136.281 7.23686 136.39 7.212 136.486 7.16229C136.584 7.11257 136.664 7.04048 136.727 6.94602C136.792 6.84991 136.834 6.73473 136.854 6.6005H137.853C137.836 6.89216 137.757 7.14903 137.614 7.37109C137.473 7.5915 137.279 7.76385 137.03 7.88814C136.782 8.01243 136.487 8.07457 136.148 8.07457ZM140.256 8.07457C139.87 8.07457 139.536 7.99254 139.254 7.82848C138.974 7.66276 138.758 7.43241 138.606 7.13743C138.453 6.84079 138.377 6.49692 138.377 6.10582C138.377 5.71141 138.453 5.36671 138.606 5.07173C138.758 4.77509 138.974 4.54474 139.254 4.38068C139.536 4.21496 139.87 4.1321 140.256 4.1321C140.642 4.1321 140.975 4.21496 141.255 4.38068C141.537 4.54474 141.754 4.77509 141.907 5.07173C142.059 5.36671 142.135 5.71141 142.135 6.10582C142.135 6.49692 142.059 6.84079 141.907 7.13743C141.754 7.43241 141.537 7.66276 141.255 7.82848C140.975 7.99254 140.642 8.07457 140.256 8.07457ZM140.261 7.25426C140.437 7.25426 140.583 7.20455 140.701 7.10511C140.819 7.00402 140.907 6.86648 140.967 6.69247C141.028 6.51847 141.059 6.32043 141.059 6.09837C141.059 5.8763 141.028 5.67827 140.967 5.50426C140.907 5.33026 140.819 5.19271 140.701 5.09162C140.583 4.99053 140.437 4.93999 140.261 4.93999C140.084 4.93999 139.935 4.99053 139.814 5.09162C139.694 5.19271 139.604 5.33026 139.543 5.50426C139.483 5.67827 139.453 5.8763 139.453 6.09837C139.453 6.32043 139.483 6.51847 139.543 6.69247C139.604 6.86648 139.694 7.00402 139.814 7.10511C139.935 7.20455 140.084 7.25426 140.261 7.25426ZM142.824 8V4.18182H143.833V4.85547H143.878C143.957 4.63175 144.09 4.45526 144.276 4.32599C144.461 4.19673 144.683 4.1321 144.942 4.1321C145.204 4.1321 145.427 4.19756 145.611 4.32848C145.794 4.45774 145.917 4.6334 145.978 4.85547H146.018C146.096 4.63672 146.237 4.46188 146.441 4.33097C146.646 4.19839 146.889 4.1321 147.169 4.1321C147.525 4.1321 147.815 4.24562 148.037 4.47266C148.26 4.69803 148.372 5.01787 148.372 5.43217V8H147.316V5.64098C147.316 5.42886 147.259 5.26977 147.147 5.16371C147.034 5.05765 146.893 5.00462 146.724 5.00462C146.532 5.00462 146.382 5.06593 146.274 5.18857C146.167 5.30954 146.113 5.46946 146.113 5.66832V8H145.086V5.61861C145.086 5.43134 145.032 5.2822 144.924 5.17116C144.818 5.06013 144.678 5.00462 144.504 5.00462C144.387 5.00462 144.281 5.03445 144.186 5.09411C144.093 5.15211 144.02 5.23414 143.965 5.3402C143.91 5.4446 143.883 5.56723 143.883 5.7081V8H142.824Z" fill="#634C9F"/>
</svg>
