<svg width="26" height="27" viewBox="0 0 26 27" fill="none" xmlns="http://www.w3.org/2000/svg">
<path d="M20.5182 4.84389H3.20216C2.66482 4.84389 2.16216 4.97389 1.69416 5.23389C1.22616 5.49389 0.85349 5.84923 0.576156 6.29989C0.298823 6.75056 0.160156 7.24456 0.160156 7.78189V18.5979C0.160156 19.1352 0.29449 19.6379 0.563156 20.1059C0.831823 20.5739 1.19582 20.9466 1.65516 21.2239C2.11449 21.5012 2.63016 21.6399 3.20216 21.6399H20.5182C21.0555 21.6399 21.5582 21.5056 22.0262 21.2369C22.4942 20.9682 22.8668 20.6042 23.1442 20.1449C23.4215 19.6856 23.5602 19.1699 23.5602 18.5979V7.78189C23.5602 7.24456 23.4215 6.75056 23.1442 6.29989C22.8668 5.84923 22.4942 5.49389 22.0262 5.23389C21.5582 4.97389 21.0555 4.84389 20.5182 4.84389ZM3.20216 6.48189H20.5182C20.8995 6.48189 21.2115 6.61189 21.4542 6.87189C21.6968 7.13189 21.8182 7.43523 21.8182 7.78189V10.1479H1.90216V7.78189C1.90216 7.40056 2.02349 7.08856 2.26616 6.84589C2.50882 6.60323 2.82082 6.48189 3.20216 6.48189ZM20.5182 20.0019H3.20216C2.83816 20.0019 2.53049 19.8676 2.27916 19.5989C2.02782 19.3302 1.90216 19.0312 1.90216 18.7019V11.9939H21.9482V18.5979C21.8788 18.9966 21.7185 19.3302 21.4672 19.5989C21.2158 19.8676 20.8995 20.0019 20.5182 20.0019Z" fill="#6B7280"/>
</svg>
