<svg width="20" height="24" viewBox="0 0 20 24" fill="none" xmlns="http://www.w3.org/2000/svg">
<path d="M18.6982 3.84389L10.0402 0.593891C9.78016 0.489893 9.59816 0.489893 9.49416 0.593891L0.810156 3.84389C0.602156 3.89589 0.441823 3.99556 0.329156 4.14289C0.21649 4.29023 0.160156 4.44189 0.160156 4.59789V12.1899C0.160156 14.1312 0.836156 16.0379 2.18816 17.9099C3.21082 19.2792 4.55416 20.5879 6.21816 21.8359C7.10216 22.4946 8.06416 23.1099 9.10416 23.6819L9.26016 23.7859C9.34682 23.8552 9.45949 23.8899 9.59816 23.8899C9.73682 23.8899 9.84082 23.8552 9.91016 23.7859L10.0402 23.7079C11.0282 23.1706 11.9642 22.5726 12.8482 21.9139C14.5468 20.6659 15.9075 19.3486 16.9302 17.9619C18.3168 16.0726 19.0102 14.1486 19.0102 12.1899V4.59789C19.1142 4.44189 19.1315 4.29023 19.0622 4.14289C18.9928 3.99556 18.8715 3.89589 18.6982 3.84389ZM17.5022 12.1899C17.5022 13.7499 16.9388 15.3099 15.8122 16.8699C14.9455 18.0486 13.7928 19.1839 12.3542 20.2759C11.4355 20.9692 10.5168 21.5586 9.59816 22.0439C8.71416 21.5759 7.79549 20.9866 6.84216 20.2759C5.43816 19.1839 4.31149 18.0486 3.46216 16.8699C2.35282 15.3099 1.79816 13.7499 1.79816 12.1899V5.14389L9.70216 2.23189L17.5022 5.14389V12.1899ZM6.99816 11.6439C6.82482 11.4879 6.62549 11.4099 6.40016 11.4099C6.17482 11.4099 5.97549 11.4879 5.80216 11.6439C5.62882 11.7999 5.54649 11.9949 5.55516 12.2289C5.56382 12.4629 5.64616 12.6666 5.80216 12.8399L7.96016 14.9979C8.15082 15.1539 8.33282 15.2319 8.50616 15.2319C8.61016 15.2319 8.71416 15.2059 8.81816 15.1539C8.92216 15.1019 9.00016 15.0499 9.05216 14.9979L13.3942 10.6819C13.5502 10.5086 13.6282 10.3049 13.6282 10.0709C13.6282 9.83689 13.5502 9.64189 13.3942 9.48589C13.2382 9.32989 13.0388 9.24756 12.7962 9.23889C12.5535 9.23023 12.3542 9.31256 12.1982 9.48589L8.61016 13.1519L6.99816 11.6439Z" fill="#6B7280"/>
</svg>
