<svg width="13" height="12" viewBox="0 0 13 12" fill="none" xmlns="http://www.w3.org/2000/svg">
<path d="M7.04346 0.575002C6.9848 0.457668 6.90046 0.364168 6.79046 0.294501C6.68046 0.224834 6.55946 0.190001 6.42746 0.190001C6.29546 0.190001 6.17263 0.224834 6.05896 0.294501C5.94529 0.364168 5.85913 0.457668 5.80046 0.575002L4.42546 3.424L1.33446 3.875C1.2098 3.88967 1.09613 3.93917 0.993462 4.0235C0.890795 4.10783 0.821128 4.21233 0.784462 4.337C0.747795 4.46167 0.744128 4.58817 0.773462 4.7165C0.802795 4.84483 0.865128 4.953 0.960462 5.041L3.19346 7.263L2.66546 10.387C2.64346 10.519 2.65813 10.6437 2.70946 10.761C2.7608 10.8783 2.8378 10.9773 2.94046 11.058C3.04313 11.1387 3.16046 11.1827 3.29246 11.19C3.42446 11.1973 3.54913 11.1717 3.66646 11.113L6.42746 9.639L9.18846 11.113C9.30579 11.1717 9.42863 11.1973 9.55696 11.19C9.6853 11.1827 9.80446 11.1405 9.91446 11.0635C10.0245 10.9865 10.1033 10.8875 10.151 10.7665C10.1986 10.6455 10.2115 10.519 10.1895 10.387L9.65046 7.263L11.8945 5.041C11.9898 4.953 12.0521 4.84483 12.0815 4.7165C12.1108 4.58817 12.1035 4.46167 12.0595 4.337C12.0155 4.21233 11.9458 4.10783 11.8505 4.0235C11.7551 3.93917 11.6415 3.88967 11.5095 3.875L8.42946 3.424L7.04346 0.575002Z" fill="#FACC15"/>
</svg>
