<svg width="12" height="12" viewBox="0 0 12 12" fill="none" xmlns="http://www.w3.org/2000/svg">
<path d="M6.79346 0.575002C6.7348 0.457668 6.65046 0.364168 6.54046 0.294501C6.43046 0.224834 6.30946 0.190001 6.17746 0.190001C6.04546 0.190001 5.92263 0.224834 5.80896 0.294501C5.69529 0.364168 5.60913 0.457668 5.55046 0.575002L4.17546 3.424L1.08446 3.875C0.959795 3.88967 0.846128 3.93917 0.743462 4.0235C0.640795 4.10783 0.571128 4.21233 0.534462 4.337C0.497795 4.46167 0.494128 4.58817 0.523462 4.7165C0.552795 4.84483 0.615128 4.953 0.710462 5.041L2.94346 7.263L2.41546 10.387C2.39346 10.519 2.40813 10.6437 2.45946 10.761C2.5108 10.8783 2.5878 10.9773 2.69046 11.058C2.79313 11.1387 2.91046 11.1827 3.04246 11.19C3.17446 11.1973 3.29913 11.1717 3.41646 11.113L6.17746 9.639L8.93846 11.113C9.05579 11.1717 9.17863 11.1973 9.30696 11.19C9.4353 11.1827 9.55446 11.1405 9.66446 11.0635C9.77446 10.9865 9.8533 10.8875 9.90096 10.7665C9.94863 10.6455 9.96146 10.519 9.93946 10.387L9.40046 7.263L11.6445 5.041C11.7398 4.953 11.8021 4.84483 11.8315 4.7165C11.8608 4.58817 11.8535 4.46167 11.8095 4.337C11.7655 4.21233 11.6958 4.10783 11.6005 4.0235C11.5051 3.93917 11.3915 3.88967 11.2595 3.875L8.17946 3.424L6.79346 0.575002Z" fill="#D1D5DB"/>
</svg>
